<?xml version="1.0" encoding="UTF-8" standalone="no"?>
<!-- Created with Inkscape (http://www.inkscape.org/) -->

<svg
   width="92.249565mm"
   height="95.065376mm"
   viewBox="0 0 92.249565 95.065376"
   version="1.1"
   id="svg5"
   xml:space="preserve"
   sodipodi:docname="shirt_0-66.svg"
   xmlns:inkscape="http://www.inkscape.org/namespaces/inkscape"
   xmlns:sodipodi="http://sodipodi.sourceforge.net/DTD/sodipodi-0.dtd"
   xmlns="http://www.w3.org/2000/svg"
   xmlns:svg="http://www.w3.org/2000/svg"><sodipodi:namedview
     id="namedview37"
     pagecolor="#ffffff"
     bordercolor="#000000"
     borderopacity="0.25"
     inkscape:showpageshadow="2"
     inkscape:pageopacity="0.0"
     inkscape:pagecheckerboard="0"
     inkscape:deskcolor="#d1d1d1"
     inkscape:document-units="mm"
     showgrid="false" /><defs
     id="defs2"><linearGradient
       id="linearGradient2904"
       inkscape:swatch="gradient"><stop
         style="stop-color:#052c84;stop-opacity:1;"
         offset="0"
         id="stop2900" /><stop
         style="stop-color:#0d4884;stop-opacity:0;"
         offset="1"
         id="stop2902" /></linearGradient><clipPath
       id="b-1-83"><path
         d="m 1009.6,294.15 c -5,-19.286 -5.3572,-67.143 3.2142,-70.714 8.5715,-3.5714 55.357,64.286 54.643,148.93 -0.7143,84.643 -57.5,-67.143 -57.5,-67.143 z"
         fill="#f2f2f2"
         id="path218-90-1" /></clipPath><clipPath
       id="a-7-6"><path
         d="M 597.14,483.08 C 572.14,436.65 565,415.22 550,410.93 c -15,-4.2857 -22.857,328.57 -33.571,417.14 -10.714,88.571 55,3.5714 55,3.5714 0,0 -7.1429,-306.43 25.714,-348.57 z"
         fill="#f9f9f9"
         id="path221-7-5" /></clipPath></defs><g
     id="layer1-62"
     transform="translate(526.73821,87.909428)"
     style="fill:#866d08;fill-opacity:1"><g
       transform="matrix(0.26458333,0,0,0.26458333,-627.10796,-200.78242)"
       id="g311-5-7"
       style="fill:#866d08;fill-opacity:1"><path
         d="m 515.3,426.86 c 0,0 5.7802,5.635 39.084,5.635 33.3038,0 37.743,-5.6405 37.743,-5.6405 0,20.292 -12.954,26.991 -37.27,26.991 -24.316,0 -39.556,-9.6374 -39.556,-26.986 z"
         fill="url(#g)"
         stroke="#000000"
         stroke-linecap="round"
         stroke-linejoin="round"
         stroke-width="0.48788"
         id="path257-0-92"
         style="fill:#866d08;fill-opacity:1" /><g
         transform="matrix(0.48788,0,0,0.48788,365.45,388.54)"
         fill="#c74d4d"
         id="g261-2-8"
         style="fill:#866d08;fill-opacity:1"><path
           transform="translate(-425.71,40)"
           d="m 808.27,88.368 c 32.388,0 67.68,-24.244 82.832,-50.508 45.457,6.0609 134.35,33.335 154.55,45.457 20.203,12.122 121.39,218.14 123.24,224.25 4.7503,15.733 -96.474,76.044 -109.1,64.65 -18.314,-37.138 -50.508,-80.812 -50.508,-76.772 -4.0406,31.315 -2.0203,463.66 6.0609,476.79 -45.558,0 -137.15,1.0102 -207.04,1.0102 0,-85.083 -0.0406,-606.04 -0.0406,-684.88 z"
           clip-path="url(#b-1-83)"
           fill="#c74d4d"
           id="path259-4-7"
           style="fill:#866d08;fill-opacity:1" /></g><path
         d="m 724.21,553.48 c -16.727,16.727 -39.466,28.489 -51.663,30.579"
         fill="none"
         stroke="#b33c3c"
         stroke-dasharray="3.90302, 0.975755"
         stroke-width="0.97576"
         id="path263-1-2"
         style="fill:#866d08;fill-opacity:1" /><g
         transform="matrix(0.48788,0,0,0.48788,364.93,388.19)"
         fill="#c74d4d"
         opacity="0.70763"
         id="g267-7-47"
         style="fill:#866d08;fill-opacity:1"><path
           d="m 381.84,129.08 c 32.388,0 67.68,-24.244 82.832,-50.508 45.457,6.0609 134.35,33.335 154.55,45.457 20.203,12.122 121.39,218.14 123.24,224.25 4.7503,15.733 -96.474,76.044 -109.1,64.65 -18.314,-37.138 -50.508,-80.812 -50.508,-76.772 -4.0406,31.315 -2.0203,463.66 6.0609,476.79 -45.558,0 -137.15,1.0102 -207.04,1.0102 0,-85.083 -0.0406,-606.04 -0.0406,-684.88 z"
           clip-path="url(#a-7-6)"
           fill="#c74d4d"
           id="path265-5-8"
           style="fill:#866d08;fill-opacity:1" /></g><g
         transform="matrix(-0.48788,0,0,0.48788,741.9,388.54)"
         fill="#c74d4d"
         id="g271-8-5"
         style="fill:#866d08;fill-opacity:1"><path
           transform="translate(-425.71,40)"
           d="m 808.27,88.368 c 32.388,0 67.68,-24.244 82.832,-50.508 45.457,6.0609 134.35,33.335 154.55,45.457 20.203,12.122 121.39,218.14 123.24,224.25 4.7503,15.733 -96.474,76.044 -109.1,64.65 -18.314,-37.138 -50.508,-80.812 -50.508,-76.772 -4.0406,31.315 -2.0203,463.66 6.0609,476.79 -45.558,0 -137.15,1.0102 -207.04,1.0102 0,-85.083 -0.0406,-606.04 -0.0406,-684.88 z"
           clip-path="url(#b-1-83)"
           fill="#c74d4d"
           id="path269-2-8"
           style="fill:#866d08;fill-opacity:1" /></g><path
         d="m 383.13,553.48 c 16.727,16.727 39.466,28.489 51.663,30.579"
         fill="none"
         stroke="#b33c3c"
         stroke-dasharray="3.90302, 0.975755"
         stroke-width="0.97576"
         id="path273-5-2"
         style="fill:#866d08;fill-opacity:1" /><g
         transform="matrix(-0.48788,0,0,0.48788,742.42,388.19)"
         fill="#c74d4d"
         id="g279-9-82"
         style="fill:#866d08;fill-opacity:1"><path
           d="m 381.84,129.08 c 32.388,0 67.68,-24.244 82.832,-50.508 45.457,6.0609 134.35,33.335 154.55,45.457 20.203,12.122 121.39,218.14 123.24,224.25 4.7503,15.733 -96.474,76.044 -109.1,64.65 -18.314,-37.138 -50.508,-80.812 -50.508,-76.772 -4.0406,31.315 -2.0203,463.66 6.0609,476.79 -45.558,0 -137.15,1.0102 -207.04,1.0102 0,-85.083 -0.0406,-606.04 -0.0406,-684.88 z"
           clip-path="url(#a-7-6)"
           opacity="0.70763"
           id="path275-7-4"
           style="fill:#866d08;fill-opacity:1" /><a
           transform="translate(26.429,-32.143)"
           id="a277-8-0"
           style="fill:#866d08;fill-opacity:1" /></g><path
         d="m 508.81,429.28 c 0,0 6.4064,28.757 45.373,28.757 38.9666,0 44.977,-29.226 44.977,-29.226"
         fill="none"
         stroke="#b33c3c"
         stroke-dasharray="3.90302, 0.975755"
         stroke-width="0.97576"
         id="path281-7-8"
         style="fill:#866d08;fill-opacity:1" /><path
         d="m 515.3,426.86 c 0,0 5.7802,5.635 39.084,5.635 33.3038,0 37.743,-5.6405 37.743,-5.6405 0,20.292 -12.954,26.991 -37.27,26.991 -24.316,0 -39.556,-9.6374 -39.556,-26.986 z"
         fill="url(#h)"
         stroke="#000000"
         stroke-linecap="round"
         stroke-linejoin="round"
         stroke-width="0.48788"
         id="path283-3-23"
         style="fill:#866d08;fill-opacity:1" /><path
         d="m 515.2,426.87 c -22.177,2.957 -65.551,16.269 -75.408,22.183 -9.8566,5.914 -59.215,106.42 -60.116,109.41 -2.3176,7.6759 47.066,37.104 53.224,31.544 8.9349,-18.119 24.638,-39.431 24.638,-37.46 1.9713,15.278 0.98488,226.22 -2.9578,232.63 21.422,0 63.618,0.45475 97.179,0.48788 h 3.8268 c 33.561,-0.0332 75.757,-0.48788 97.179,-0.48788 -3.9426,-6.4068 -4.9291,-217.35 -2.9578,-232.63 0,-1.9713 15.718,19.341 24.653,37.46 6.1584,5.5592 55.542,-23.868 53.224,-31.544 -0.90093,-2.9839 -50.274,-103.49 -60.131,-109.41 -9.8566,-5.914 -53.23,-19.226 -75.408,-22.183 -7.0907,12.291 -14.476,24.835 -38.466,24.577 -23.991,-0.25803 -31.388,-12.282 -38.481,-24.577 z"
         fill="#00ccff"
         stroke="#000000"
         stroke-width="0.48788px"
         id="path285-4-4"
         style="fill:#866d08;fill-opacity:1" /><g
         transform="matrix(0.48788,0,0,0.48788,365.45,388.54)"
         fill="#00aad4"
         id="g289-7-2"
         style="fill:#866d08;fill-opacity:1"><path
           transform="translate(-425.71,40)"
           d="m 808.27,88.368 c 32.388,0 67.68,-24.244 82.832,-50.508 45.457,6.0609 134.35,33.335 154.55,45.457 20.203,12.122 121.39,218.14 123.24,224.25 4.7503,15.733 -96.474,76.044 -109.1,64.65 -18.314,-37.138 -50.508,-80.812 -50.508,-76.772 -4.0406,31.315 -2.0203,463.66 6.0609,476.79 -45.558,0 -137.15,1.0102 -207.04,1.0102 0,-85.083 -0.0406,-606.04 -0.0406,-684.88 z"
           clip-path="url(#b-1-83)"
           fill="#00aad4"
           id="path287-1-6"
           style="fill:#866d08;fill-opacity:1" /></g><path
         d="m 724.21,553.48 c -16.727,16.727 -39.466,28.489 -51.663,30.579"
         fill="none"
         stroke="#55ffdd"
         stroke-dasharray="3.90302, 0.975755"
         stroke-width="0.97576"
         id="path291-2-1"
         style="fill:#866d08;fill-opacity:1" /><g
         transform="matrix(0.48788,0,0,0.48788,364.93,388.19)"
         fill="#1ebfe9"
         opacity="0.70763"
         id="g295-1-8"
         style="fill:#866d08;fill-opacity:1"><path
           d="m 381.84,129.08 c 32.388,0 67.68,-24.244 82.832,-50.508 45.457,6.0609 134.35,33.335 154.55,45.457 20.203,12.122 121.39,218.14 123.24,224.25 4.7503,15.733 -96.474,76.044 -109.1,64.65 -18.314,-37.138 -50.508,-80.812 -50.508,-76.772 -4.0406,31.315 -2.0203,463.66 6.0609,476.79 -45.558,0 -137.15,1.0102 -207.04,1.0102 0,-85.083 -0.0406,-606.04 -0.0406,-684.88 z"
           clip-path="url(#a-7-6)"
           fill="#1ebfe9"
           id="path293-6-4"
           style="fill:#866d08;fill-opacity:1" /></g><g
         transform="matrix(-0.48788,0,0,0.48788,741.9,388.54)"
         fill="#00aad4"
         id="g299-5-22"
         style="fill:#866d08;fill-opacity:1"><path
           transform="translate(-425.71,40)"
           d="m 808.27,88.368 c 32.388,0 67.68,-24.244 82.832,-50.508 45.457,6.0609 134.35,33.335 154.55,45.457 20.203,12.122 121.39,218.14 123.24,224.25 4.7503,15.733 -96.474,76.044 -109.1,64.65 -18.314,-37.138 -50.508,-80.812 -50.508,-76.772 -4.0406,31.315 -2.0203,463.66 6.0609,476.79 -45.558,0 -137.15,1.0102 -207.04,1.0102 0,-85.083 -0.0406,-606.04 -0.0406,-684.88 z"
           clip-path="url(#b-1-83)"
           fill="#00aad4"
           id="path297-9-5"
           style="fill:#866d08;fill-opacity:1" /></g><path
         d="m 383.13,553.48 c 16.727,16.727 39.466,28.489 51.663,30.579"
         fill="none"
         stroke="#55ffdd"
         stroke-dasharray="3.90302, 0.975755"
         stroke-width="0.97576"
         id="path301-1-9"
         style="fill:#866d08;fill-opacity:1" /><g
         transform="matrix(-0.48788,0,0,0.48788,742.42,388.19)"
         fill="#1ebfe9"
         id="g307-4-8"
         style="fill:#866d08;fill-opacity:1"><path
           d="m 381.84,129.08 c 32.388,0 67.68,-24.244 82.832,-50.508 45.457,6.0609 134.35,33.335 154.55,45.457 20.203,12.122 121.39,218.14 123.24,224.25 4.7503,15.733 -96.474,76.044 -109.1,64.65 -18.314,-37.138 -50.508,-80.812 -50.508,-76.772 -4.0406,31.315 -2.0203,463.66 6.0609,476.79 -45.558,0 -137.15,1.0102 -207.04,1.0102 0,-85.083 -0.0406,-606.04 -0.0406,-684.88 z"
           clip-path="url(#a-7-6)"
           opacity="0.70763"
           id="path303-5-8"
           style="fill:#866d08;fill-opacity:1" /><a
           transform="translate(26.429,-32.143)"
           id="a305-8-2"
           style="fill:#866d08;fill-opacity:1" /></g><path
         d="m 508.81,429.28 c 0,0 6.4064,28.757 45.373,28.757 38.9666,0 44.977,-29.226 44.977,-29.226"
         fill="none"
         stroke="#55ffdd"
         stroke-dasharray="3.90302, 0.975755"
         stroke-width="0.97576"
         id="path309-3-2"
         style="fill:#866d08;fill-opacity:1" /></g></g></svg>
