<?xml version="1.0" encoding="UTF-8" standalone="no"?>
<!-- Created with Inkscape (http://www.inkscape.org/) -->

<svg
   width="92.249878mm"
   height="95.063972mm"
   viewBox="0 0 92.249878 95.063972"
   version="1.1"
   id="svg5"
   xml:space="preserve"
   xmlns="http://www.w3.org/2000/svg"
   xmlns:svg="http://www.w3.org/2000/svg"><defs
     id="defs2"><clipPath
       id="b"><path
         d="m 1009.6,294.15 c -5,-19.286 -5.3572,-67.143 3.2142,-70.714 8.5715,-3.5714 55.357,64.286 54.643,148.93 -0.7143,84.643 -57.5,-67.143 -57.5,-67.143 z"
         fill="#f2f2f2"
         id="path218" /></clipPath><clipPath
       id="a"><path
         d="M 597.14,483.08 C 572.14,436.65 565,415.22 550,410.93 c -15,-4.2857 -22.857,328.57 -33.571,417.14 -10.714,88.571 55,3.5714 55,3.5714 0,0 -7.1429,-306.43 25.714,-348.57 z"
         fill="#f9f9f9"
         id="path221" /></clipPath></defs><g
     id="layer1"
     transform="translate(1141.4474,142.73629)"><g
       transform="matrix(0.12908492,0,0,0.12908492,-1145.1253,-152.80778)"
       id="g343"
       style="fill:#ffff00"><path
         d="m 307.14,78.55 c 0,0 11.848,11.55 80.11,11.55 68.262,0 77.361,-11.561 77.361,-11.561 0,41.592 -26.551,55.323 -76.392,55.323 -49.84,0 -81.079,-19.754 -81.079,-55.312 z"
         fill="url(#i)"
         stroke="#000000"
         stroke-linecap="round"
         stroke-linejoin="round"
         id="path315"
         style="fill:#ffff00" /><path
         d="m 306.94,78.562 c -45.457,6.0609 -134.36,33.347 -154.56,45.469 -20.203,12.122 -121.37,218.13 -123.22,224.25 -4.7503,15.733 96.471,76.051 109.09,64.656 18.314,-37.138 50.5,-80.822 50.5,-76.781 4.0406,31.315 2.0187,463.68 -6.0625,476.81 43.909,0 130.4,0.93208 199.19,1 2.5292,0 5.2609,0.003 7.8438,0 68.789,-0.0679 155.28,-1 199.19,-1 -8.0812,-13.132 -10.103,-445.5 -6.0625,-476.81 0,-4.0406 32.217,39.643 50.531,76.781 12.623,11.395 113.84,-48.923 109.09,-64.656 -1.8466,-6.1161 -103.05,-212.13 -123.25,-224.25 -20.203,-12.122 -109.11,-39.408 -154.56,-45.469 -14.534,25.192 -29.67,50.904 -78.844,50.375 -49.173,-0.5289 -64.336,-25.175 -78.875,-50.375 z"
         fill="#aad400"
         stroke="#000000"
         stroke-width="1px"
         id="path317"
         style="fill:#ffff00" /><g
         fill="#9dba26"
         id="g321"
         style="fill:#ffff00"><path
           transform="translate(-425.71,40)"
           d="m 808.27,88.368 c 32.388,0 67.68,-24.244 82.832,-50.508 45.457,6.0609 134.35,33.335 154.55,45.457 20.203,12.122 121.39,218.14 123.24,224.25 4.7503,15.733 -96.474,76.044 -109.1,64.65 -18.314,-37.138 -50.508,-80.812 -50.508,-76.772 -4.0406,31.315 -2.0203,463.66 6.0609,476.79 -45.558,0 -137.15,1.0102 -207.04,1.0102 0,-85.083 -0.0406,-606.04 -0.0406,-684.88 z"
           clip-path="url(#b)"
           fill="#9dba26"
           id="path319"
           style="fill:#ffff00" /></g><path
         d="m 735.36,338.08 c -34.286,34.286 -80.893,58.393 -105.89,62.679"
         fill="none"
         stroke="#ffff00"
         stroke-dasharray="8, 2"
         stroke-width="2"
         id="path323"
         style="fill:#ffff00" /><g
         transform="translate(-1.0714,-0.71429)"
         fill="#a5c524"
         opacity="0.70763"
         id="g327"
         style="fill:#ffff00"><path
           d="m 381.84,129.08 c 32.388,0 67.68,-24.244 82.832,-50.508 45.457,6.0609 134.35,33.335 154.55,45.457 20.203,12.122 121.39,218.14 123.24,224.25 4.7503,15.733 -96.474,76.044 -109.1,64.65 -18.314,-37.138 -50.508,-80.812 -50.508,-76.772 -4.0406,31.315 -2.0203,463.66 6.0609,476.79 -45.558,0 -137.15,1.0102 -207.04,1.0102 0,-85.083 -0.0406,-606.04 -0.0406,-684.88 z"
           clip-path="url(#a)"
           fill="#a5c524"
           id="path325"
           style="fill:#ffff00" /></g><g
         transform="matrix(-1,0,0,1,771.6,0)"
         fill="#9dba26"
         id="g331"
         style="fill:#ffff00"><path
           transform="translate(-425.71,40)"
           d="m 808.27,88.368 c 32.388,0 67.68,-24.244 82.832,-50.508 45.457,6.0609 134.35,33.335 154.55,45.457 20.203,12.122 121.39,218.14 123.24,224.25 4.7503,15.733 -96.474,76.044 -109.1,64.65 -18.314,-37.138 -50.508,-80.812 -50.508,-76.772 -4.0406,31.315 -2.0203,463.66 6.0609,476.79 -45.558,0 -137.15,1.0102 -207.04,1.0102 0,-85.083 -0.0406,-606.04 -0.0406,-684.88 z"
           clip-path="url(#b)"
           fill="#9dba26"
           id="path329"
           style="fill:#ffff00" /></g><path
         d="m 36.247,338.08 c 34.286,34.286 80.893,58.393 105.89,62.679"
         fill="none"
         stroke="#ffff00"
         stroke-dasharray="8, 2"
         stroke-width="2"
         id="path333"
         style="fill:#ffff00" /><g
         transform="matrix(-1,0,0,1,772.68,-0.71429)"
         fill="#a5c524"
         id="g339"
         style="fill:#ffff00"><path
           d="m 381.84,129.08 c 32.388,0 67.68,-24.244 82.832,-50.508 45.457,6.0609 134.35,33.335 154.55,45.457 20.203,12.122 121.39,218.14 123.24,224.25 4.7503,15.733 -96.474,76.044 -109.1,64.65 -18.314,-37.138 -50.508,-80.812 -50.508,-76.772 -4.0406,31.315 -2.0203,463.66 6.0609,476.79 -45.558,0 -137.15,1.0102 -207.04,1.0102 0,-85.083 -0.0406,-606.04 -0.0406,-684.88 z"
           clip-path="url(#a)"
           opacity="0.70763"
           id="path335"
           style="fill:#ffff00" /><a
           transform="translate(26.429,-32.143)"
           id="a337"
           style="fill:#ffff00" /></g><path
         d="m 293.84,83.518 c 0,0 13.131,58.944 93.002,58.944 79.871,0 92.188,-59.905 92.188,-59.905"
         fill="none"
         stroke="#ffff00"
         stroke-dasharray="8, 2"
         stroke-width="2"
         id="path341"
         style="fill:#ffff00" /></g></g></svg>
