<?xml version="1.0" encoding="UTF-8" standalone="no"?>
<!-- Created with Inkscape (http://www.inkscape.org/) -->

<svg
   width="92.249634mm"
   height="95.070007mm"
   viewBox="0 0 92.249634 95.070007"
   version="1.1"
   id="svg5"
   xml:space="preserve"
   xmlns="http://www.w3.org/2000/svg"
   xmlns:svg="http://www.w3.org/2000/svg"><defs
     id="defs2"><clipPath
       id="b"><path
         d="m 1009.6,294.15 c -5,-19.286 -5.3572,-67.143 3.2142,-70.714 8.5715,-3.5714 55.357,64.286 54.643,148.93 -0.7143,84.643 -57.5,-67.143 -57.5,-67.143 z"
         fill="#f2f2f2"
         id="path218" /></clipPath><clipPath
       id="a"><path
         d="M 597.14,483.08 C 572.14,436.65 565,415.22 550,410.93 c -15,-4.2857 -22.857,328.57 -33.571,417.14 -10.714,88.571 55,3.5714 55,3.5714 0,0 -7.1429,-306.43 25.714,-348.57 z"
         fill="#f9f9f9"
         id="path221" /></clipPath></defs><g
     id="layer1"
     transform="translate(961.54336,154.63978)"><g
       transform="matrix(0.26458333,0,0,0.26458333,-1061.9131,-161.67388)"
       id="g401"
       style="fill:#d40000"><path
         d="m 515.3,26.86 c 0,0 5.7802,5.635 39.084,5.635 33.3038,0 37.743,-5.6405 37.743,-5.6405 0,20.292 -12.954,26.991 -37.27,26.991 -24.316,0 -39.556,-9.6375 -39.556,-26.986 z"
         fill="url(#d)"
         stroke="#000000"
         stroke-linecap="round"
         stroke-linejoin="round"
         stroke-width="0.48788"
         id="path345"
         style="fill:#d40000" /><path
         d="m 515.2,26.866 c -22.177,2.957 -65.551,16.269 -75.408,22.183 -9.8566,5.914 -59.215,106.42 -60.116,109.41 -2.3176,7.6759 47.066,37.104 53.224,31.544 8.9349,-18.119 24.638,-39.431 24.638,-37.46 1.9713,15.278 0.98488,226.22 -2.9578,232.63 21.422,0 63.618,0.45474 97.179,0.48788 1.2339,0 2.5667,10e-4 3.8268,0 33.561,-0.0331 75.757,-0.48788 97.179,-0.48788 -3.9426,-6.4068 -4.9291,-217.35 -2.9578,-232.63 0,-1.9713 15.718,19.341 24.653,37.46 6.1584,5.5592 55.542,-23.868 53.224,-31.544 -0.9,-2.99 -50.27,-103.5 -60.13,-109.41 -9.85,-5.915 -53.23,-19.227 -75.4,-22.184 -7.1,12.29 -14.48,24.835 -38.47,24.577 -23.99,-0.258 -31.39,-12.282 -38.48,-24.577 z"
         fill="#d35f5f"
         stroke="#000000"
         stroke-width="0.48788px"
         id="path347"
         style="fill:#d40000" /><g
         transform="matrix(0.48788,0,0,0.48788,365.45,-11.463)"
         fill="#c74d4d"
         id="g351"
         style="fill:#d40000"><path
           transform="translate(-425.71,40)"
           d="m 808.27,88.368 c 32.388,0 67.68,-24.244 82.832,-50.508 45.457,6.0609 134.35,33.335 154.55,45.457 20.203,12.122 121.39,218.14 123.24,224.25 4.7503,15.733 -96.474,76.044 -109.1,64.65 -18.314,-37.138 -50.508,-80.812 -50.508,-76.772 -4.0406,31.315 -2.0203,463.66 6.0609,476.79 -45.558,0 -137.15,1.0102 -207.04,1.0102 0,-85.083 -0.0406,-606.04 -0.0406,-684.88 z"
           clip-path="url(#b)"
           fill="#c74d4d"
           id="path349"
           style="fill:#d40000" /></g><path
         d="m 724.21,153.48 c -16.727,16.727 -39.466,28.489 -51.663,30.579"
         fill="none"
         stroke="#b33c3c"
         stroke-dasharray="3.90302, 0.975755"
         stroke-width="0.97576"
         id="path353"
         style="fill:#d40000" /><g
         transform="matrix(0.48788,0,0,0.48788,364.93,-11.811)"
         fill="#c74d4d"
         opacity="0.70763"
         id="g357"
         style="fill:#d40000"><path
           d="m 381.84,129.08 c 32.388,0 67.68,-24.244 82.832,-50.508 45.457,6.0609 134.35,33.335 154.55,45.457 20.203,12.122 121.39,218.14 123.24,224.25 4.7503,15.733 -96.474,76.044 -109.1,64.65 -18.314,-37.138 -50.508,-80.812 -50.508,-76.772 -4.0406,31.315 -2.0203,463.66 6.0609,476.79 -45.558,0 -137.15,1.0102 -207.04,1.0102 0,-85.083 -0.0406,-606.04 -0.0406,-684.88 z"
           clip-path="url(#a)"
           fill="#c74d4d"
           id="path355"
           style="fill:#d40000" /></g><g
         transform="matrix(-0.48788,0,0,0.48788,741.9,-11.463)"
         fill="#c74d4d"
         id="g361"
         style="fill:#d40000"><path
           transform="translate(-425.71,40)"
           d="m 808.27,88.368 c 32.388,0 67.68,-24.244 82.832,-50.508 45.457,6.0609 134.35,33.335 154.55,45.457 20.203,12.122 121.39,218.14 123.24,224.25 4.7503,15.733 -96.474,76.044 -109.1,64.65 -18.314,-37.138 -50.508,-80.812 -50.508,-76.772 -4.0406,31.315 -2.0203,463.66 6.0609,476.79 -45.558,0 -137.15,1.0102 -207.04,1.0102 0,-85.083 -0.0406,-606.04 -0.0406,-684.88 z"
           clip-path="url(#b)"
           fill="#c74d4d"
           id="path359"
           style="fill:#d40000" /></g><path
         d="m 383.13,153.48 c 16.727,16.727 39.466,28.489 51.663,30.579"
         fill="none"
         stroke="#b33c3c"
         stroke-dasharray="3.90302, 0.975755"
         stroke-width="0.97576"
         id="path363"
         style="fill:#d40000" /><g
         transform="matrix(-0.48788,0,0,0.48788,742.42,-11.811)"
         fill="#c74d4d"
         id="g369"
         style="fill:#d40000"><path
           d="m 381.84,129.08 c 32.388,0 67.68,-24.244 82.832,-50.508 45.457,6.0609 134.35,33.335 154.55,45.457 20.203,12.122 121.39,218.14 123.24,224.25 4.7503,15.733 -96.474,76.044 -109.1,64.65 -18.314,-37.138 -50.508,-80.812 -50.508,-76.772 -4.0406,31.315 -2.0203,463.66 6.0609,476.79 -45.558,0 -137.15,1.0102 -207.04,1.0102 0,-85.083 -0.0406,-606.04 -0.0406,-684.88 z"
           clip-path="url(#a)"
           opacity="0.70763"
           id="path365"
           style="fill:#d40000" /><a
           transform="translate(26.429,-32.143)"
           id="a367"
           style="fill:#d40000" /></g><path
         d="m 508.81,29.284 c 0,0 6.4064,28.757 45.373,28.757 38.9666,0 44.977,-29.226 44.977,-29.226"
         fill="none"
         stroke="#b33c3c"
         stroke-dasharray="3.90302, 0.975755"
         stroke-width="0.97576"
         id="path371"
         style="fill:#d40000" /><path
         d="m 515.3,26.86 c 0,0 5.7802,5.635 39.084,5.635 33.3038,0 37.743,-5.6405 37.743,-5.6405 0,20.292 -12.954,26.991 -37.27,26.991 -24.316,0 -39.556,-9.6375 -39.556,-26.986 z"
         fill="url(#d)"
         stroke="#000000"
         stroke-linecap="round"
         stroke-linejoin="round"
         stroke-width="0.48788"
         id="path373"
         style="fill:#d40000" /><path
         d="m 515.2,26.866 c -22.177,2.957 -65.551,16.269 -75.408,22.183 -9.8566,5.914 -59.215,106.42 -60.116,109.41 -2.3176,7.6759 47.066,37.104 53.224,31.544 8.9349,-18.119 24.638,-39.431 24.638,-37.46 1.9713,15.278 0.98488,226.22 -2.9578,232.63 21.422,0 63.618,0.45474 97.179,0.48788 1.2339,0 2.5667,10e-4 3.8268,0 33.561,-0.0331 75.757,-0.48788 97.179,-0.48788 -3.9426,-6.4068 -4.9291,-217.35 -2.9578,-232.63 0,-1.9713 15.718,19.341 24.653,37.46 6.1584,5.5592 55.542,-23.868 53.224,-31.544 -0.9,-2.99 -50.27,-103.5 -60.13,-109.41 -9.85,-5.915 -53.23,-19.227 -75.4,-22.184 -7.1,12.29 -14.48,24.835 -38.47,24.577 -23.99,-0.258 -31.39,-12.282 -38.48,-24.577 z"
         fill="#d35f5f"
         stroke="#000000"
         stroke-width="0.48788px"
         id="path375"
         style="fill:#d40000" /><g
         transform="matrix(0.48788,0,0,0.48788,365.45,-11.463)"
         fill="#c74d4d"
         id="g379"
         style="fill:#d40000"><path
           transform="translate(-425.71,40)"
           d="m 808.27,88.368 c 32.388,0 67.68,-24.244 82.832,-50.508 45.457,6.0609 134.35,33.335 154.55,45.457 20.203,12.122 121.39,218.14 123.24,224.25 4.7503,15.733 -96.474,76.044 -109.1,64.65 -18.314,-37.138 -50.508,-80.812 -50.508,-76.772 -4.0406,31.315 -2.0203,463.66 6.0609,476.79 -45.558,0 -137.15,1.0102 -207.04,1.0102 0,-85.083 -0.0406,-606.04 -0.0406,-684.88 z"
           clip-path="url(#b)"
           fill="#c74d4d"
           id="path377"
           style="fill:#d40000" /></g><path
         d="m 724.21,153.48 c -16.727,16.727 -39.466,28.489 -51.663,30.579"
         fill="none"
         stroke="#b33c3c"
         stroke-dasharray="3.90302, 0.975755"
         stroke-width="0.97576"
         id="path381"
         style="fill:#d40000" /><g
         transform="matrix(0.48788,0,0,0.48788,364.93,-11.811)"
         fill="#c74d4d"
         opacity="0.70763"
         id="g385"
         style="fill:#d40000"><path
           d="m 381.84,129.08 c 32.388,0 67.68,-24.244 82.832,-50.508 45.457,6.0609 134.35,33.335 154.55,45.457 20.203,12.122 121.39,218.14 123.24,224.25 4.7503,15.733 -96.474,76.044 -109.1,64.65 -18.314,-37.138 -50.508,-80.812 -50.508,-76.772 -4.0406,31.315 -2.0203,463.66 6.0609,476.79 -45.558,0 -137.15,1.0102 -207.04,1.0102 0,-85.083 -0.0406,-606.04 -0.0406,-684.88 z"
           clip-path="url(#a)"
           fill="#c74d4d"
           id="path383"
           style="fill:#d40000" /></g><g
         transform="matrix(-0.48788,0,0,0.48788,741.9,-11.463)"
         fill="#c74d4d"
         id="g389"
         style="fill:#d40000"><path
           transform="translate(-425.71,40)"
           d="m 808.27,88.368 c 32.388,0 67.68,-24.244 82.832,-50.508 45.457,6.0609 134.35,33.335 154.55,45.457 20.203,12.122 121.39,218.14 123.24,224.25 4.7503,15.733 -96.474,76.044 -109.1,64.65 -18.314,-37.138 -50.508,-80.812 -50.508,-76.772 -4.0406,31.315 -2.0203,463.66 6.0609,476.79 -45.558,0 -137.15,1.0102 -207.04,1.0102 0,-85.083 -0.0406,-606.04 -0.0406,-684.88 z"
           clip-path="url(#b)"
           fill="#c74d4d"
           id="path387"
           style="fill:#d40000" /></g><path
         d="m 383.13,153.48 c 16.727,16.727 39.466,28.489 51.663,30.579"
         fill="none"
         stroke="#b33c3c"
         stroke-dasharray="3.90302, 0.975755"
         stroke-width="0.97576"
         id="path391"
         style="fill:#d40000" /><g
         transform="matrix(-0.48788,0,0,0.48788,742.42,-11.811)"
         fill="#c74d4d"
         id="g397"
         style="fill:#d40000"><path
           d="m 381.84,129.08 c 32.388,0 67.68,-24.244 82.832,-50.508 45.457,6.0609 134.35,33.335 154.55,45.457 20.203,12.122 121.39,218.14 123.24,224.25 4.7503,15.733 -96.474,76.044 -109.1,64.65 -18.314,-37.138 -50.508,-80.812 -50.508,-76.772 -4.0406,31.315 -2.0203,463.66 6.0609,476.79 -45.558,0 -137.15,1.0102 -207.04,1.0102 0,-85.083 -0.0406,-606.04 -0.0406,-684.88 z"
           clip-path="url(#a)"
           opacity="0.70763"
           id="path393"
           style="fill:#d40000" /><a
           transform="translate(26.429,-32.143)"
           id="a395"
           style="fill:#d40000" /></g><path
         d="m 508.81,29.284 c 0,0 6.4064,28.757 45.373,28.757 38.9666,0 44.977,-29.226 44.977,-29.226"
         fill="none"
         stroke="#b33c3c"
         stroke-dasharray="3.90302, 0.975755"
         stroke-width="0.97576"
         id="path399"
         style="fill:#d40000" /></g></g></svg>
